<svg xmlns="http://www.w3.org/2000/svg" viewBox="0 0 445 876">
  <title>Untitled-1</title>
  <g id="stick">
    <path d="M184.5,634V811.2221c-.4015,22.7671,18.4662,41.11,40,40.2777,20.4637-.7909,37.4158-18.67,37-40.2777V634Z" fill="#fff" stroke="#000" stroke-miterlimit="10"/>
  </g>
  <g id="outside">
    <path d="M265.5,634.5h108c14.357.6317,38.8126-.5873,53-17,9.3829-10.8545,11-24.0307,11-30v-374c-4.8063-115.6664-102.5369-206.1983-215-203-108.1177,3.0747-198.4715,91.8839-203,203v374a49.6811,49.6811,0,0,0,13,33C46.4937,635.5443,64.8586,635.978,68,636l16.5-.5a6.742,6.742,0,0,1,6,1,6.4571,6.4571,0,0,1,2,7v20c-.8582,5.5669,3.1426,10.5165,8,11,5.1231.51,10.22-4.0459,10-10v-10c-.55-7.27,5.2358-12.4483,10-12,4.334.4078,8.7043,5.5553,8,12v27c1.3585,6.5163,6.6967,10.998,12,11,6.7222.0026,13.3213-7.1923,12-16q1-17,2-34c-.8749-6.073,2.3864-11.16,6-12,4.1907-.9743,10.4992,3.3806,11,11v21c.0957,7.9622,6.4662,12.8429,11,12,3.6543-.6794,7.0285-5.2468,7-11q-.5-14.5-1-29Z" fill="#fff" stroke="#000" stroke-miterlimit="10"/>
  </g>
  <g id="inside-l">
    <path d="M184.5,558.5A9.3758,9.3758,0,0,1,175,568H111.5a9.0625,9.0625,0,0,1-9-2.5,8.4414,8.4414,0,0,1-2-5v-364c-.7769-23.6763,18.1029-43.4609,41-44,23.6249-.5562,43.7853,19.5584,43,44Z" fill="#fff" stroke="#000" stroke-miterlimit="10"/>
  </g>
  <g id="inside-r">
    <path d="M261.5,559.5v-370a41.2162,41.2162,0,0,1,82,0v370a7.4953,7.4953,0,0,1-9,9h-63a8.6735,8.6735,0,0,1-10-9Z" fill="#fff" stroke="#000" stroke-miterlimit="10"/>
  </g>
  <g id="drop">
    <path d="M153.5,701.5a30.5057,30.5057,0,0,1,7,9,29.9308,29.9308,0,0,1,2,5c.6227,5.84-3.9684,10.231-8,10-3.7975-.2176-7.6739-4.5689-7-10a31.9287,31.9287,0,0,1,6-14Z" fill="#fff" stroke="#000" stroke-miterlimit="10"/>
  </g>
</svg>
